<svg xmlns="http://www.w3.org/2000/svg" width="257.647" height="95.869" viewBox="-72 -72 193.235 71.902"><g stroke="#000" stroke-miterlimit="10" stroke-width=".4"><path fill="none" stroke-width=".8" d="M-71.87-47.98H98.846"/><path fill="#4c4c4c" stroke="none" d="M-14.965-47.98v-7.112h56.906v7.113Zm56.906-7.112"/><g stroke="none"><text x="13.488" y="-47.979" font-family="cmr10" font-size="10" transform="translate(-61.131 -14.013)">electro</text><text x="42.683" y="-47.979" font-family="cmr10" font-size="10" transform="translate(-61.131 -14.013)">de</text><text x="56.016" y="-47.979" font-family="cmmi10" font-size="10" transform="translate(-61.131 -14.013)">e</text><text x="60.672" y="-46.479" font-family="cmmi7" font-size="7" transform="translate(-61.131 -14.013)">`</text><text x="67.853" y="-47.979" font-family="cmr10" font-size="10" transform="translate(-61.131 -14.013)">with</text><text x="90.631" y="-47.979" font-family="cmr10" font-size="10" transform="translate(-61.131 -14.013)">v</text><text x="95.631" y="-47.979" font-family="cmr10" font-size="10" transform="translate(-61.131 -14.013)">oltage</text><text x="125.075" y="-47.979" font-family="cmmi10" font-size="10" transform="translate(-61.131 -14.013)">U</text><text x="131.903" y="-46.479" font-family="cmmi7" font-size="7" transform="translate(-61.131 -14.013)">`</text></g><path fill="none" d="M13.488-47.98v5.691M13.488-42.289l4.268 2.276L9.22-35.46l8.536 4.553-8.536 4.552 4.268 2.276M13.488-24.08v4.553"/><g stroke="none"><text x="13.488" y="-47.979" font-family="cmr10" font-size="10" transform="translate(10.646 16.726)">con</text><text x="28.21" y="-47.979" font-family="cmr10" font-size="10" transform="translate(10.646 16.726)">tact</text><text x="48.766" y="-47.979" font-family="cmr10" font-size="10" transform="translate(10.646 16.726)">imp</text><text x="65.711" y="-47.979" font-family="cmr10" font-size="10" transform="translate(10.646 16.726)">edance</text><text x="98.488" y="-47.979" font-family="cmmi10" font-size="10" transform="translate(10.646 16.726)">z</text><text x="103.139" y="-46.479" font-family="cmmi7" font-size="7" transform="translate(10.646 16.726)">`</text></g><g stroke="none" font-size="10"><text x="13.488" y="-47.979" font-family="cmr10" transform="translate(-30.64 42.334)">¬,</text><text x="26.822" y="-47.979" font-family="cmr10" transform="translate(-30.64 42.334)">p</text><text x="32.655" y="-47.979" font-family="cmr10" transform="translate(-30.64 42.334)">oten</text><text x="51.266" y="-47.979" font-family="cmr10" transform="translate(-30.64 42.334)">tial</text><text x="69.044" y="-47.979" font-family="cmmi10" transform="translate(-30.64 42.334)">u</text></g></g></svg>